# xmcd
#
# Track frame offsets:
#	150
#	13651
#	21821
#	32045
#	44721
#	61590
#	75541
#	86860
#	96280
#	107398
#
# Disc length: 2184 seconds
#
# Revision: 4
# Processed by: cddbd v1.5.2PL0 Copyright (c) Steve Scherf et al.
# Submitted via: audiograbber 1.83.01
#
DISCID=7208860a
DTITLE=Carlos Paredes - Na corrente
DYEAR=1996
DGENRE=Guitarra
TTITLE0=A montanha e a planície
TTITLE1=Dança dos montanheses
TTITLE2=Dança dos camponenses
TTITLE3=Os senhores da terra
TTITLE4=Em memória de uma camponesa assassinada
TTITLE5=Sede e morte
TTITLE6=Balada de Coimbra
TTITLE7=Canção de alcipe
TTITLE8=O fantoche
TTITLE9=Na corrente
EXTD=
EXTT0=
EXTT1=
EXTT2=
EXTT3=
EXTT4=
EXTT5=
EXTT6=
EXTT7=
EXTT8=
EXTT9=
PLAYORDER=
